<svg xmlns="http://www.w3.org/2000/svg" width="30px" height="13.5px">
	<style type="text/css">
		.st1{fill: #263238;}
		.st5{fill: #AED581;}
		.st11{fill: #2E7D32;}
	</style>
	<g>
		<g id="svg_54">
			<path d="m28.207001,6.933993l-1.729,6.483l-1.965,0.046c0,0.001001 0.327999,-5.612 3.694,-6.528999z" class="st5"/>
			<path d="m26.746,2.199994c0,0 -2.018,6.776999 -1.919001,7.98l-0.458,3.105l-1.886999,0.104c0,0 0.487,-9.059999 4.264,-11.189z" class="st11"/>
			<path d="m23.216,7.260993l-0.633999,2.399l-2.919001,-5.807999c0.000999,0.000999 2.708,0.396999 3.552999,3.408999z" class="st5"/>
			<g>
				<path d="m11.861,6.692993l-1.729,6.483001l-1.965,0.046c0,0.000999 0.327001,-5.613 3.694,-6.529z" class="st5"/>
				<path d="m1.941,7.115993l2.034,6.394l1.965,-0.046c0,0 -0.592,-5.592001 -3.999,-6.348001z" class="st5"/>
				<path d="m11.928,9.514993l1.040999,4.002001l1.965,-0.046c0,0 0.046,-2.331001 -3.006,-3.956001z" class="st5"/>
				<path d="m21.152,6.661993l-1.729,6.483001l-1.965,0.046c0,0 0.327999,-5.612999 3.694,-6.529z" class="st5"/>
				<path d="m17.834999,5.233994l-1.067999,3.475999l-0.618999,-0.528999c-0.001001,0.001001 0.554998,-2.528 1.686998,-2.947z" class="st5"/>
				<path d="m3.083,2.318994c0,0 2.336,6.673999 2.293,7.879999l0.604,3.08l1.89,0.014c0.001,0.001001 -0.914,-9.025999 -4.787,-10.973999z" class="st11"/>
				<path d="m12.053,2.230994c0,0 2.335999,6.674 2.292999,7.88l0.604,3.08l1.89,0.014c0.000999,0.000999 -0.913,-9.026 -4.787,-10.974z" class="st11"/>
				<path d="m6.655,7.004993l0.746,2.367l2.641,-5.939999c0.001,0 -2.685,0.524 -3.387,3.572999z" class="st5"/>
				<path class="st1" d="m29.645,5.394994c-0.111,-0.159 -0.316,-0.217 -0.494001,-0.137c-1.903999,0.853 -3.059,2.325 -3.758999,3.780999c0.794001,-6.323999 3.030001,-7.693999 3.052999,-7.707999c0.167,-0.09 0.247,-0.284 0.194,-0.465c-0.054001,-0.181 -0.193001,-0.314 -0.414999,-0.287c-0.123001,0.009 -2.759001,0.29 -4.838001,6.089999c-1.597,-3.630999 -4.483,-3.700999 -4.615999,-3.701999c-0.190001,-0.011 -0.339001,0.118 -0.388,0.292c-0.049999,0.173 0.023001,0.358 0.176001,0.452001c0.004,0.002 0.057999,0.037 0.146999,0.101999c-0.886,0.441 -2.143999,1.158 -2.907,2.888999c-2.354,-5.731999 -5.012,-5.889 -5.136001,-5.891999c-0.209,-0.012 -0.351,0.122 -0.396999,0.303c-0.047,0.181 0.040999,0.372 0.207,0.457c0.02,0.01 1.213,0.68 2.289,3.381001c-0.645,0.286999 -4.379,2.215999 -4.608999,8.126998l-0.225,-0.000999c0.035,-0.938999 0.024,-1.636 -0.018,-2.205999c0,-0.004 0.002,-0.006001 0.002,-0.01c0.132999,-5.576999 3.273,-7.487 3.407,-7.566c0.16,-0.094 0.235001,-0.285 0.182,-0.462c-0.053,-0.177 -0.246,-0.301001 -0.405,-0.286c-0.133,0.007 -3.013,0.214 -4.437,3.916999c-2.35,-5.696 -4.997,-5.852999 -5.12,-5.856c-0.212,-0.007999 -0.351,0.123 -0.398,0.304c-0.046,0.181001 0.041,0.372001 0.207,0.458c0.028,0.014 2.327,1.278 3.419,7.557c-0.768,-1.421 -1.992,-2.836 -3.935,-3.599c-0.178,-0.071 -0.384,-0.003 -0.487,0.161c-0.103,0.164 -0.073,0.377 0.069,0.507999c0.029,0.027 2.938,2.754 2.82,7.462c-0.003,0.108 0.038,0.213001 0.114,0.290001c0.075,0.077 0.178,0.121 0.287,0.121l6.748,0.015999c0.016,0.002001 0.03,0.008001 0.047,0.008001c0.007,0 0.015,-0.001001 0.023,-0.002001c0.008,-0.000999 0.014,-0.005001 0.022,-0.006001l2.278,0.005001c0.001,0 0.001,0 0.002,0c0.007,0 0.013,0.000999 0.02,0.000999c0.000999,0 0.002,-0.000999 0.004,-0.000999l4.875,0.011c0.000999,0 0.002001,0.000999 0.002001,0.000999c0.005999,0 0.011999,0.000999 0.017,0.000999c0.001999,0 0.002998,-0.000999 0.004999,-0.000999l1.999001,0.005001c0.001999,0 0.003,0.000999 0.004999,0.000999c0.004,0 0.007999,0 0.012001,-0.000999l7.042,0.015999c0.004,0.000999 0.007999,0.000999 0.011,0.000999c0.006001,0 0.013,-0.000999 0.02,-0.000999c0.018999,-0.000999 0.035,-0.011 0.053999,-0.014999c0.031,-0.007 0.062,-0.012001 0.09,-0.025c0.021,-0.01 0.038,-0.026001 0.057001,-0.039001c0.022999,-0.015999 0.046,-0.029999 0.064999,-0.050999c0.016001,-0.018002 0.026001,-0.039001 0.039,-0.059c0.015001,-0.023001 0.030001,-0.044001 0.040001,-0.07c0.009001,-0.024 0.011,-0.050001 0.014999,-0.076c0.004,-0.022001 0.013,-0.041 0.013,-0.064001c0,-0.004999 -0.003,-0.008999 -0.003,-0.014c0,-0.006001 0.003,-0.011 0.002001,-0.015999c-0.339001,-4.679001 2.435999,-7.559001 2.465,-7.588001c0.132999,-0.138 0.150999,-0.353 0.042,-0.511999zm-20.364,-1.273c-0.727,0.92 -1.504,2.313 -1.903,4.288c-0.088,-0.268 -0.178,-0.509 -0.266,-0.759c0.502,-1.87 1.367,-2.932 2.169,-3.529zm-5.241,8.947c-0.023,-2.609001 -0.89,-4.608 -1.699,-5.909c2.299,1.971001 2.801,5.184 2.887,5.912001l-1.188,-0.003zm3.083,0.007l-1.084,-0.003c-0.32,-5.338 -1.396,-8.44 -2.395,-10.21c0.921,1.046 2.016,2.845999 3.018,5.935c0.334,1.028999 0.558,1.720999 0.461,4.278zm17.199,0.041l-1.163,-0.003c-0.190001,-2.264 -0.008001,-2.927 0.244999,-3.806l0.109001,-0.384001c0.85,-3.112 1.857,-4.944 2.726,-6.020999c-0.911001,1.796 -1.835001,4.921999 -1.917,10.214zm-7.281,-2.135c0.1,-3.384001 1.303999,-5.421 2.351999,-6.565001c0.360001,0.361 0.794001,0.868 1.217001,1.548c-1.493,1.172 -3.145,3.33 -3.321001,7.135l-0.233999,-0.000999c0.032999,-0.903002 0.025999,-1.586 -0.014,-2.117001zm3.541,-3.929c-0.973001,1.812999 -1.425001,3.883 -1.328001,6.051999l-1.160999,-0.003c0.149,-3.033998 1.299,-4.914999 2.489,-6.048999zm0.747,0.309999c0.455999,1.072 0.823,2.403001 0.939999,4.045001c0.001001,0.014 0.008001,0.025 0.01,0.039c-0.002998,0.449999 0.02,0.994999 0.074001,1.666l-2.297001,-0.005001c-0.098,-2.066999 0.337,-4.032999 1.273001,-5.745zm1.659,0.513c-0.084002,0.275 -0.169001,0.540999 -0.25,0.836999l-0.050001,0.177c-0.541,-2.197999 -1.504999,-3.684999 -2.316,-4.612998c0.896,0.511999 1.957001,1.541999 2.616001,3.599zm-5.314001,-2.450001c-0.483,0.839001 -0.909,1.888 -1.171,3.185c-0.087,-0.266001 -0.176001,-0.507 -0.264999,-0.755c0.32,-1.172 0.852999,-1.915999 1.435999,-2.43zm-1.913,3.497001l0.065001,0.198c0.191,0.581999 0.341,1.056 0.409,1.896c0,0.008999 -0.002001,0.017 -0.002001,0.027c0,0.018999 0.007,0.035 0.009001,0.052c0.035999,0.5 0.039999,1.146 0.008999,2.000999l-1.103999,-0.003c-0.336,-5.246 -1.401,-8.311 -2.394,-10.055c0.921,1.035001 2.014,2.816 3.007999,5.884zm-4.353,0.025999c0.493,1.031 0.929,2.371 0.949,4.139l-1.551001,-0.004c-0.07,-1.593 0.205,-2.990999 0.602,-4.135zm1.351,1.315001c0.825,1.179001 1.283,2.264999 1.487,2.827999l-1.088,-0.002998c-0.012,-1.077002 -0.168,-2.018002 -0.399,-2.825001zm1.399,0.711c-0.519,-0.932001 -1.28,-2.023001 -2.342,-3.039001c0.471,-1.03 0.981,-1.757 1.261,-2.115c0.434,1.307 0.827001,2.981 1.081,5.154zm-2.705,-4.142c-0.763,1.398 -1.561,3.549999 -1.448,6.249001l-1.048,-0.002001c0.135,-3.246 1.389,-5.177999 2.496,-6.247zm14.869,6.288l-1.190001,-0.003c0.068001,-0.855 0.458,-3.948 2.6,-5.963c-0.745001,1.334001 -1.504,3.37 -1.41,5.966001z"/>
			</g>
		</g>
	</g>
</svg>