<svg id="Capa_1" enable-background="new 0 0 512 512" height="512" viewBox="0 0 512 512" width="512" xmlns="http://www.w3.org/2000/svg"><g><g><path d="m396.276 493.419c-3.778-55.051-23.057-112.553-37.11-148.194l-103.167-9.3-102.929 8.701c-14.072 35.594-33.547 93.433-37.346 148.793l140.276 9z" fill="#e2ae84"/><path d="m115.728 493.419c-.306 4.456-.513 8.896-.606 13.307-.061 2.895 2.271 5.274 5.166 5.274h271.425c2.895 0 5.228-2.379 5.167-5.274-.093-4.411-.3-8.851-.606-13.307z" fill="#d7a379"/><path d="m256 370.651c40.314 0 75.467-8.682 103.165-25.426-3.338-8.465-6.382-15.699-8.852-21.373h-188.626c-2.471 5.674-5.514 12.908-8.852 21.373 27.698 16.744 62.851 25.426 103.165 25.426z" fill="#dc4955"/><path d="m256 417.376c12.292 0 26.576-18.572 26.576-27.862-3.839-10.982-14.284-18.862-26.576-18.862s-22.737 7.88-26.576 18.862c0 10.663 14.284 27.862 26.576 27.862z" fill="#f6e080"/><path d="m256 408.376c-12.292 0-22.737-7.881-26.576-18.862-1.017 2.909-1.576 6.034-1.576 9.29 0 15.548 12.604 28.153 28.153 28.153s28.153-12.604 28.153-28.153c0-3.257-.559-6.381-1.576-9.29-3.841 10.982-14.286 18.862-26.578 18.862z" fill="#eccd61"/><path d="m350.313 323.852c-3.86-8.866-6.324-13.931-6.324-13.931h-175.978s-2.464 5.065-6.324 13.931c23.599 18.693 56.058 28.446 94.313 28.446s70.714-9.753 94.313-28.446z" fill="#d82f3c"/><path d="m388.584 169.093c-.012-.02 3.344-22.088 3.344-22.088l6.912-8.574c15.185-60.734 3.062-123.428-16.743-136.377-14.907-9.747-38.282 17.374-51.648 35.62l-1.129 9.67-9.167 5.426.004.007c-17.622-10.595-38.868-16.823-64.157-16.823s-46.535 6.228-64.158 16.824l.004-.007-8.559-4.823-1.737-10.274c-13.366-18.246-36.741-45.367-51.648-35.62-19.805 12.949-31.928 75.644-16.743 136.378l9.016 5.724s1.252 24.918 1.24 24.938l.012-.02c-1.698 10.385-2.734 20.826-3.144 31.098 3.707 74.372 57.651 123.966 135.716 123.966 78.066 0 132.009-49.594 135.716-123.966-.41-10.271-1.446-20.712-3.144-31.098z" fill="#e2ae84"/><path d="m164.064 50.902c-7.599-9.925-16.738-18.909-22.796-14.949-8.549 5.59-13.524 31.366-11.052 59.139l18.585-16.446z" fill="#cf8151"/><path d="m256 232.588c10.895 0 29.42-3.266 29.943-14.775.561-12.344-10.654-16.587-29.943-16.587-19.29 0-30.505 4.244-29.943 16.587.523 11.509 19.048 14.775 29.943 14.775z" fill="#808b95"/><path d="m282.542 207.847c-5.954 8.285-18.385 15.16-26.542 15.16s-20.588-6.876-26.542-15.16c-2.408 2.48-3.593 5.75-3.401 9.966.412 9.061 11.981 18.587 22.201 22.232v35.26c0 4.276 3.466 7.742 7.742 7.742s7.742-3.466 7.742-7.742v-35.26c10.22-3.644 21.789-13.171 22.201-22.232.192-4.216-.992-7.486-3.401-9.966z" fill="#5e6b75"/><path d="m256 315.137c-78.066 0-132.009-40.594-135.716-114.966-.138 3.454-.211 6.89-.211 10.297 0 79.64 55.009 123.25 135.928 123.25s135.928-43.61 135.928-123.25c0-3.407-.074-6.843-.211-10.297-3.709 74.372-57.652 114.966-135.718 114.966z" fill="#d7a379"/><g fill="#d7a379"><path d="m130.217 95.098c-7.175 13.567-12.818 28.206-17.051 43.332 2.591 10.364 5.971 20.67 10.25 30.663 2.525-15.451 6.542-30.771 12.193-45.225l1.484-19.726z"/><path d="m181.551 37.675c-6.242 3.934-12.061 8.371-17.486 13.228v12.304s10.177 2.614 10.177 2.614c5.411-4.847 11.265-9.222 17.592-13.028l.013-.022s-4.061-6.583-10.296-15.096z"/></g><path d="m130.217 95.094c.855 9.604 2.595 19.445 5.393 28.775 8.74-22.353 21.411-42.621 38.632-58.048-2.475-4.013-6.106-9.6-10.177-14.919-13.791 12.345-24.99 27.446-33.848 44.192z" fill="#bd6e45"/><path d="m347.936 50.902c7.599-9.925 16.738-18.909 22.796-14.949 8.55 5.59 13.524 31.366 11.052 59.139l-18.585-16.446z" fill="#cf8151"/><g fill="#d7a379"><path d="m381.783 95.098c7.175 13.567 12.818 28.206 17.051 43.332-2.591 10.364-5.971 20.67-10.25 30.663-2.525-15.451-6.542-30.771-12.193-45.225l-1.484-19.726z"/><path d="m330.45 37.675c6.242 3.934 12.061 8.371 17.486 13.228v12.304l-10.177 2.614c-5.411-4.847-11.265-9.222-17.592-13.028l-.013-.022s4.06-6.583 10.296-15.096z"/></g><path d="m381.784 95.094c-.855 9.604-2.595 19.445-5.393 28.775-8.74-22.353-21.411-42.621-38.632-58.048 2.475-4.013 6.106-9.6 10.177-14.919 13.79 12.345 24.99 27.446 33.848 44.192z" fill="#bd6e45"/></g><g fill="#5e6b75"><path d="m191.631 149.993v19.234c0 4.285 3.473 7.757 7.757 7.757s7.757-3.473 7.757-7.757v-19.234c0-4.285-3.473-7.757-7.757-7.757s-7.757 3.472-7.757 7.757z"/><path d="m304.859 149.993v19.234c0 4.285 3.473 7.757 7.757 7.757s7.757-3.473 7.757-7.757v-19.234c0-4.285-3.473-7.757-7.757-7.757s-7.757 3.472-7.757 7.757z"/></g></g></svg>