<svg enable-background="new 0 0 64 64" height="34px" version="1.1" viewBox="0 0 64 64" width="64px" xmlns="http://www.w3.org/2000/svg">
<g>
<g>
    <circle cx="32" cy="32" fill="#2B3299" r="32"/>
</g>
<g>
    <path
            d="M32,52c-1.105,0-2-0.895-2-2V18c0-1.105,0.895-2,2-2l0,0c1.105,0,2,0.895,2,2v32    C34,51.105,33.105,52,32,52L32,52z"
            fill="#DFE5F0"/>
</g>
<g>
    <path
            d="M46,52c-1.105,0-2-0.895-2-2V18c0-1.105,0.895-2,2-2l0,0c1.105,0,2,0.895,2,2v32    C48,51.105,47.105,52,46,52L46,52z"
            fill="#DFE5F0"/>
</g>
<g>
    <path
            d="M18,52c-1.105,0-2-0.895-2-2V18c0-1.105,0.895-2,2-2l0,0c1.105,0,2,0.895,2,2v32    C20,51.105,19.105,52,18,52L18,52z"
            fill="#DFE5F0"/>
</g>
<g opacity="0.2">
    <circle cx="45.865" cy="38" fill="#231F20" r="4"/>
</g>
<g opacity="0.2">
    <circle cx="32" cy="27" fill="#231F20" r="4"/>
</g>
<g opacity="0.2">
    <circle cx="18" cy="44" fill="#231F20" r="4"/>
</g>
<g>
    <circle cx="45.865" cy="36" fill="#FFFFFF" r="4"/>
</g>
<g>
    <circle cx="32" cy="25" fill="#FFFFFF" r="4"/>
</g>
<g>
    <circle cx="18" cy="42" fill="#FFFFFF" r="4"/>
</g>
</g>
</svg>